Coordinates
version=1
nRows=13
nColumns=40
inDegrees=yes

Units are S.I. units (second, meters, Newtons, ...)
Angles are in degrees.

endheader
time	pelvis_tilt	pelvis_list	pelvis_rotation	pelvis_tx	pelvis_ty	pelvis_tz	hip_flexion_r	hip_adduction_r	hip_rotation_r	knee_angle_r	knee_angle_r_beta	ankle_angle_r	subtalar_angle_r	mtp_angle_r	hip_flexion_l	hip_adduction_l	hip_rotation_l	knee_angle_l	knee_angle_l_beta	ankle_angle_l	subtalar_angle_l	mtp_angle_l	lumbar_extension	lumbar_bending	lumbar_rotation	arm_flex_r	arm_add_r	arm_rot_r	elbow_flex_r	pro_sup_r	wrist_flex_r	wrist_dev_r	arm_flex_l	arm_add_l	arm_rot_l	elbow_flex_l	pro_sup_l	wrist_flex_l	wrist_dev_l
      7.24500000	     -4.75023534	     -7.14371628	     -0.14310402	      1.04939513	      0.91170774	      0.51736354	     -4.67929013	      5.22650593	    -15.15881946	      7.26927412	      7.26927412	     17.62689245	      7.71890284	     -5.76928121	     34.98352439	    -11.81254822	     -3.98969714	     19.73323561	     19.73323561	      3.92175547	    -11.18929372	      9.33051808	     -8.52354646	      7.09672027	      3.40505332	     49.82320072	    -14.70596806	     -2.74812429	    104.67250045	     44.36170936	      0.00000000	      0.00000000	    -14.90422053	     -8.54551020	     11.80820885	     26.86150591	     43.72541283	      0.00000000	      0.00000000
      7.25635714	     -4.81445950	     -7.01472166	     -0.24984720	      1.05084437	      0.90974582	      0.51527074	     -5.04639430	      4.84144389	    -14.82700864	      7.87735676	      7.87735676	     18.33118298	      7.27070246	     -5.65588089	     34.93838741	    -11.60744835	     -4.17271019	     20.88712661	     20.88712661	      3.18242385	    -12.34353611	      9.05929871	     -8.28917528	      6.95502507	      3.25278813	     50.72812916	    -14.48949889	     -2.60005337	    105.81874905	     44.33104035	      0.00000000	      0.00000000	    -15.96506785	     -8.40905845	     11.92240231	     26.60907999	     43.70203742	      0.00000000	      0.00000000
      7.26771429	     -4.94794616	     -6.90475530	     -0.38016275	      1.05224887	      0.90788169	      0.51308271	     -5.12494148	      4.44103837	    -14.19369570	      8.91893852	      8.91893852	     19.45345560	      6.36244989	     -4.03568373	     34.79229537	    -11.33902075	     -3.99169516	     21.69924623	     21.69924623	      1.57500603	    -14.05595029	      7.31015919	     -8.02851400	      6.85413132	      3.22672238	     51.21254437	    -14.51686319	     -2.14957206	    107.67368452	     44.29850699	      0.00000000	      0.00000000	    -17.08466744	     -8.37480620	     12.30390265	     26.74688779	     43.69502198	      0.00000000	      0.00000000
      7.27907143	     -4.96369552	     -6.74244871	     -0.44721545	      1.05375196	      0.90623208	      0.51074524	     -5.45890343	      3.96982164	    -13.98805809	      9.68895964	      9.68895964	     20.06461595	      6.05249506	     -3.75359119	     34.80409831	    -11.11533684	     -4.03721725	     23.09802411	     23.09802411	      0.99855957	    -14.82306275	      6.78645537	     -7.86567653	      6.67608984	      3.05054990	     51.70683303	    -14.29203812	     -2.16957882	    108.67337421	     44.28477957	      0.00000000	      0.00000000	    -17.85742990	     -8.24059240	     12.52131152	     26.36912937	     43.67958143	      0.00000000	      0.00000000
      7.29042857	     -4.95093735	     -6.53526498	     -0.49119420	      1.05520653	      0.90489373	      0.50820773	     -5.71035163	      3.42099058	    -13.70271845	     10.66096220	     10.66096220	     20.64078232	      5.53857728	     -3.37261830	     34.77410802	    -10.81139409	     -3.94481519	     24.46615615	     24.46615615	      0.63143549	    -15.56141687	      6.32382465	     -7.76775685	      6.43770687	      2.91783330	     51.87723535	    -14.20747023	     -2.16547880	    109.85524077	     44.26579731	      0.00000000	      0.00000000	    -18.40283578	     -8.10917056	     12.74239503	     25.96359706	     43.67318208	      0.00000000	      0.00000000
      7.30178571	     -4.89699576	     -6.33815711	     -0.51400059	      1.05661912	      0.90390859	      0.50551279	     -5.95743414	      2.85633132	    -13.45322335	     11.70183070	     11.70183070	     21.03419808	      5.05917087	     -3.24486109	     34.74070508	    -10.50620705	     -3.80627800	     25.89671325	     25.89671325	      0.66063831	    -16.13255493	      6.00417692	     -7.73604797	      6.24482490	      2.77069347	     51.90752173	    -14.14905200	     -2.20287497	    110.88510674	     44.24647597	      0.00000000	      0.00000000	    -18.77713930	     -7.95967832	     12.89635398	     25.58728869	     43.66814152	      0.00000000	      0.00000000
      7.31314286	     -4.79596555	     -6.11817207	     -0.48824357	      1.05799309	      0.90334297	      0.50265805	     -6.13063742	      2.23950032	    -13.22699964	     12.95845538	     12.95845538	     21.28932382	      4.49179811	     -3.27850662	     34.62534890	    -10.14822369	     -3.63382254	     27.25343324	     27.25343324	      1.01115485	    -16.55749086	      5.75499157	     -7.76785019	      6.03145411	      2.60455926	     51.62358581	    -14.10882075	     -2.24089150	    111.87954771	     44.22492630	      0.00000000	      0.00000000	    -18.98033753	     -7.83371041	     13.01851092	     25.22055689	     43.66694262	      0.00000000	      0.00000000
      7.32450000	     -4.77351266	     -5.82972722	     -0.48664592	      1.05920068	      0.90308464	      0.49963694	     -5.97990761	      1.48790742	    -12.95116783	     14.62746364	     14.62746364	     21.38293032	      3.65362170	     -3.48337026	     34.53909615	     -9.71068022	     -3.49930792	     28.52379605	     28.52379605	      1.70509871	    -16.87236483	      5.74460765	     -7.74803217	      5.74710017	      2.52757833	     50.95651626	    -14.21914406	     -2.38231179	    113.23304912	     44.19902894	      0.00000000	      0.00000000	    -18.89790212	     -7.69525692	     13.17389291	     24.72305950	     43.67750289	      0.00000000	      0.00000000
      7.33585714	     -4.68857443	     -5.59700984	     -0.45474214	      1.06033381	      0.90340863	      0.49652196	     -5.82164972	      0.81172241	    -12.58893576	     16.35741445	     16.35741445	     20.95500233	      2.52933382	     -4.37861095	     34.34011108	     -9.28849338	     -3.31291965	     29.71855636	     29.71855636	      3.01993056	    -17.00607744	      6.91577224	     -7.83913517	      5.52725719	      3.03842963	     49.64955109	    -14.98394503	     -3.11513464	    115.29296823	     44.19823355	      0.00000000	      0.00000000	    -18.11923248	     -7.63075786	     13.54828527	     23.58135411	     43.73536626	      0.00000000	      0.00000000
      7.34721429	     -4.38261215	     -5.43916357	     -0.36665525	      1.06157401	      0.90438012	      0.49320607	     -5.82719464	      0.15036206	    -12.51462604	     18.25157380	     18.25157380	     20.54803180	      1.89146093	     -4.79467118	     33.73498938	     -8.90864614	     -3.14376093	     30.60388865	     30.60388865	      3.96796619	    -17.24820572	      6.53587170	     -8.15791847	      5.43163519	      2.64065351	     48.66323673	    -14.85239144	     -3.04317974	    115.54703018	     44.18839192	      0.00000000	      0.00000000	    -17.92275019	     -7.51528295	     13.60326736	     23.52042258	     43.74063402	      0.00000000	      0.00000000
      7.35857143	     -4.51502051	     -5.08966276	     -0.42366180	      1.06224878	      0.90498089	      0.48998626	     -4.62225259	     -0.84321421	    -12.16502649	     21.41692089	     21.41692089	     19.90710578	      0.42428419	     -5.96152235	     33.44175556	     -8.41322293	     -3.30483825	     31.19649012	     31.19649012	      4.94086612	    -17.28406792	      6.43126353	     -7.97630369	      5.14530178	      2.47156533	     47.48689124	    -14.75818794	     -3.04691766	    116.34030005	     44.16781259	      0.00000000	      0.00000000	    -17.54458263	     -7.42369603	     13.65164229	     23.39363584	     43.76098134	      0.00000000	      0.00000000
      7.36992857	     -4.51886883	     -4.91348773	     -0.40964835	      1.06286754	      0.90618613	      0.48675146	     -3.70917195	     -1.47620273	    -11.52054102	     23.98320092	     23.98320092	     17.10692793	     -2.49021979	    -11.46071591	     32.98586408	     -7.99305076	     -3.18929770	     31.73990599	     31.73990599	      6.54424444	    -17.26261882	      8.01165600	     -8.04812721	      5.02686817	      3.21043253	     45.26853924	    -15.65951652	     -4.22260184	    118.44727923	     44.19046269	      0.00000000	      0.00000000	    -16.23111777	     -7.41073038	     13.81951745	     22.54920899	     43.89797087	      0.00000000	      0.00000000
      7.38128571	     -4.50042173	     -4.66980719	     -0.43592021	      1.06334904	      0.90758439	      0.48351742	     -2.32651800	     -2.37553135	    -11.27513682	     27.60362655	     27.60362655	     15.76402041	     -4.16239417	    -12.37073577	     32.28500692	     -7.56692303	     -3.37128292	     31.86636484	     31.86636484	      7.38133171	    -17.25636788	      7.67263667	     -8.07845751	      4.87671150	      2.86306454	     43.73340632	    -15.45193016	     -4.03292359	    118.41399221	     44.18638662	      0.00000000	      0.00000000	    -15.72370178	     -7.34905060	     13.81740447	     22.73416915	     43.92627155	      0.00000000	      0.00000000
